<?xml version="1.0" encoding="UTF-8"?>
<svg width="200px" height="16px" viewBox="0 0 200 16" version="1.1" xmlns="http://www.w3.org/2000/svg" xmlns:xlink="http://www.w3.org/1999/xlink">
    <!-- Generator: Sketch 50 (54983) - http://www.bohemiancoding.com/sketch -->
    <title>berman</title>
    <desc>Created with Sketch.</desc>
    <defs></defs>
    <g id="Page-1" stroke="none" stroke-width="1" fill="none" fill-rule="evenodd">
        <g id="berman" fill="#FFFFFF" fill-rule="nonzero">
            <polygon id="Shape" points="36.11 15.63 33.65 15.63 33.65 0.35 36.11 0.35"></polygon>
            <path d="M176.63,1.67 L176.14,0.35 L178.42,0.35 L184.42,15.63 L181.8,15.63 L179.9,10.5 L175.09,10.5 L173.25,15.63 L171.62,15.63 L176.63,1.67 Z M179.36,9.05 L177.46,3.91 L175.61,9.05 L179.36,9.05 Z" id="Shape"></path>
            <path d="M5,1.67 L4.52,0.35 L6.8,0.35 L12.8,15.63 L10.18,15.63 L8.28,10.51 L3.47,10.51 L1.63,15.63 L0,15.63 L5,1.67 Z M7.74,9.05 L5.84,3.91 L4,9.05 L7.74,9.05 Z" id="Shape"></path>
            <polygon id="Shape" points="83.78 0.35 91.43 0.35 90.92 1.79 86.24 1.79 86.24 7.22 91.34 7.22 90.82 8.66 86.24 8.66 86.24 14.19 91.61 14.19 91.09 15.63 83.78 15.63"></polygon>
            <polygon id="Shape" points="58.15 0.35 60.61 0.35 60.61 14.19 66 14.19 65.48 15.63 58.15 15.63"></polygon>
            <path d="M114.4,7.67 C116.011853,7.07729735 117.095493,5.55702538 117.13,3.84 C117.13,1.58 115.48,0.26 112.31,0.26 L111.87,0.26 C111.08,0.26 110,0.34 108.6,0.34 L108.08,0.34 L108.08,15.63 C110.21,15.63 111.4,15.74 111.68,15.74 C112.865544,15.7658571 114.041573,15.5231303 115.12,15.03 C115.884552,14.6791641 116.535745,14.1214932 117,13.42 C117.406993,12.7769087 117.622076,12.0310553 117.62,11.27 C117.61,9.67 116.56,8.23 114.4,7.67 Z M110.53,1.61 C110.891464,1.56054719 111.25532,1.53050409 111.62,1.52 C112.500683,1.48645948 113.354013,1.82935797 113.966617,2.46295443 C114.579221,3.09655088 114.893184,3.96094614 114.83,4.84 C114.849921,5.89628216 114.348825,6.89473647 113.49,7.51 L112.2,7.22 L110.53,8.22 L110.53,1.61 Z M114.32,14 C114.098858,14.2255676 113.85412,14.4267221 113.59,14.6 C113.398882,14.6390078 113.20491,14.6624182 113.01,14.67 C112.167404,14.6139191 111.334688,14.4561058 110.53,14.2 L110.53,8.53 C110.62,8.53 113.42,9.05 113.73,9.2 C114.458895,9.5795979 114.985083,10.2592576 115.17,11.06 C115.219554,11.2798111 115.243049,11.5046931 115.24,11.73 C115.270257,12.5830961 114.935658,13.4086845 114.32,14 Z" id="Shape"></path>
            <path d="M17.69,15.63 L17.69,0.35 C19.63,0.37 21,0.26 21.93,0.26 C25.1,0.26 26.75,1.59 26.75,3.84 C26.75,5.84 25.34,7.4 22.58,8.21 L28.31,15.63 L25.2,15.63 L20.15,9.09 L20.15,15.63 L17.69,15.63 Z M21.82,7.22 L23.1,7.51 C23.9653401,6.89929867 24.471147,5.89892515 24.45,4.84 C24.5101897,3.95996245 24.1938404,3.09576295 23.5797151,2.46256547 C22.9655898,1.82936799 22.1114664,1.48674463 21.23,1.52 C20.8679865,1.516402 20.5064247,1.54653215 20.15,1.61 L20.15,8.25 L21.82,7.22 Z" id="Shape"></path>
            <polygon id="Shape" points="190.44 15.63 189 15.63 189 0.35 190.82 0.35 198.52 10.35 198.52 0.35 200 0.35 200 15.63 198.51 15.63 198.51 14.37 190.44 3.91"></polygon>
            <polygon id="Shape" points="71.1 0.35 73.56 0.35 73.56 14.19 79 14.19 78.48 15.63 71.1 15.63"></polygon>
            <path d="M137.25,15.63 L137.25,0.35 L137.78,0.35 C139.45,0.35 140.69,0.26 141.49,0.26 C144.66,0.26 146.31,1.58 146.31,3.84 C146.31,5.84 144.9,7.4 142.14,8.2 L147.88,15.63 L144.76,15.63 L139.76,9.09 L139.76,15.63 L137.25,15.63 Z M141.38,7.22 L142.66,7.51 C143.521553,6.89707228 144.023425,5.89707415 144,4.84 C144.059964,3.96176181 143.744935,3.09924992 143.133053,2.46640027 C142.521172,1.83355061 141.66976,1.48965039 140.79,1.52 C140.424655,1.51595403 140.059733,1.54608523 139.7,1.61 L139.7,8.25 L141.38,7.22 Z" id="Shape"></path>
            <polygon id="Shape" points="152.67 0.35 154.45 0.35 161.07 8.9 164.42 0.35 167 0.35 167 15.63 164.54 15.63 164.54 4.23 162 10.8 159.46 10.8 154.15 3.91 154.15 15.63 152.7 15.63"></polygon>
            <polygon id="Shape" points="44 0.35 51.65 0.35 51.13 1.79 46.47 1.79 46.47 7.22 51.56 7.22 51.05 8.66 46.47 8.66 46.47 14.19 51.84 14.19 51.33 15.63 44 15.63"></polygon>
            <polygon id="Shape" points="123.36 0.35 131 0.35 130.49 1.79 125.81 1.79 125.81 7.22 130.9 7.22 130.39 8.66 125.81 8.66 125.81 14.19 131.18 14.19 130.66 15.63 123.35 15.63"></polygon>
        </g>
    </g>
</svg>