<svg id="Layer_1" data-name="Layer 1" xmlns="http://www.w3.org/2000/svg" viewBox="0 0 200 16"><title>Artboard 1</title><path d="M36.11,15.63H33.65V.35h2.46Z"/><path d="M176.63,1.67,176.14.35h2.28l6,15.28H181.8l-1.9-5.13h-4.81l-1.84,5.13h-1.63Zm2.73,7.38-1.9-5.14-1.85,5.14Z"/><path d="M5,1.67,4.52.35H6.8l6,15.28H10.18l-1.9-5.12H3.47L1.63,15.63H0ZM7.74,9.05,5.84,3.91,4,9.05Z"/><path d="M83.78.35h7.65l-.51,1.44H86.24V7.22h5.1l-.52,1.44H86.24v5.53h5.37l-.52,1.44H83.78Z"/><path d="M58.15.35h2.46V14.19H66l-.52,1.44H58.15Z"/><path d="M114.4,7.67a4.17,4.17,0,0,0,2.73-3.83c0-2.26-1.65-3.58-4.82-3.58h-.44c-.79,0-1.87.08-3.27.08h-.52V15.63c2.13,0,3.32.11,3.6.11a7.86,7.86,0,0,0,3.44-.71A4.51,4.51,0,0,0,117,13.42a4,4,0,0,0,.62-2.15C117.61,9.67,116.56,8.23,114.4,7.67Zm-3.87-6.06a10.21,10.21,0,0,1,1.09-.09,3.1,3.1,0,0,1,3.21,3.32,3.21,3.21,0,0,1-1.34,2.67l-1.29-.29-1.67,1ZM114.32,14a4.41,4.41,0,0,1-.73.6,3.6,3.6,0,0,1-.58.07,10.47,10.47,0,0,1-2.48-.47V8.53c.09,0,2.89.52,3.2.67a2.81,2.81,0,0,1,1.44,1.86,2.87,2.87,0,0,1,.07.67A3,3,0,0,1,114.32,14Z"/><path d="M17.69,15.63V.35C19.63.37,21,.26,21.93.26c3.17,0,4.82,1.33,4.82,3.58,0,2-1.41,3.56-4.17,4.37l5.73,7.42H25.2L20.15,9.09v6.54Zm4.13-8.41,1.28.29a3.19,3.19,0,0,0,1.35-2.67,3.11,3.11,0,0,0-3.22-3.32,5.83,5.83,0,0,0-1.08.09V8.25Z"/><path d="M190.44,15.63H189V.35h1.82l7.7,10V.35H200V15.63h-1.49V14.37L190.44,3.91Z"/><path d="M71.1.35h2.46V14.19H79l-.52,1.44H71.1Z"/><path d="M137.25,15.63V.35h.53c1.67,0,2.91-.09,3.71-.09,3.17,0,4.82,1.32,4.82,3.58,0,2-1.41,3.56-4.17,4.36l5.74,7.43h-3.12l-5-6.54v6.54Zm4.13-8.41,1.28.29A3.19,3.19,0,0,0,144,4.84a3.11,3.11,0,0,0-3.21-3.32,5.86,5.86,0,0,0-1.09.09V8.25Z"/><path d="M152.67.35h1.78l6.62,8.55L164.42.35H167V15.63h-2.46V4.23L162,10.8h-2.54l-5.31-6.89V15.63h-1.45Z"/><path d="M44,.35h7.65l-.52,1.44H46.47V7.22h5.09l-.51,1.44H46.47v5.53h5.37l-.51,1.44H44Z"/><path d="M123.36.35H131l-.51,1.44h-4.68V7.22h5.09l-.51,1.44h-4.58v5.53h5.37l-.52,1.44h-7.31Z"/></svg>